<?xml version="1.0" encoding="iso-8859-1"?>
<!-- Generator: Adobe Illustrator 16.0.0, SVG Export Plug-In . SVG Version: 6.00 Build 0)  -->
<!DOCTYPE svg PUBLIC "-//W3C//DTD SVG 1.1//EN" "http://www.w3.org/Graphics/SVG/1.1/DTD/svg11.dtd">
<svg version="1.1" id="Capa_1" xmlns="http://www.w3.org/2000/svg" xmlns:xlink="http://www.w3.org/1999/xlink" x="0px" y="0px"
	 width="244.571px" height="244.571px" viewBox="0 0 244.571 244.571" style="enable-background:new 0 0 244.571 244.571;"
	 xml:space="preserve">
<g>
	<path style="fill:#030303;" d="M202.709,11.199l-77.364-0.36l-3.064-0.015l-3.062,0.015l-77.365,0.36L0,85.997l119.71,144.64
		l2.578,3.11l2.576-3.11l119.707-144.64L202.709,11.199z M116.771,16.706L72.341,80.227L47.837,17.026L116.771,16.706z
		 M43.088,20.98l24.102,62.163L8.508,82.78L43.088,20.98z M9.784,88.641l59.63,0.369l44.26,125.158L9.784,88.641z M119.043,211.784
		L75.638,89.053l43.68,0.269L119.043,211.784z M119.329,83.46l-41.916-0.257l41.836-59.819l0.215-0.309l-0.111,49.066L119.329,83.46
		z M236.051,82.78l-58.678,0.357l24.102-62.163L236.051,82.78z M196.723,17.026l-24.508,63.201l-44.429-63.521L196.723,17.026z
		 M125.207,72.142l-0.108-49.066l0.218,0.309l41.833,59.819l-41.913,0.257L125.207,72.142z M125.247,89.316l43.675-0.269
		l-43.4,122.731L125.247,89.316z M130.886,214.168L175.148,89.01l59.633-0.369L130.886,214.168z"/>
</g>
<g>
</g>
<g>
</g>
<g>
</g>
<g>
</g>
<g>
</g>
<g>
</g>
<g>
</g>
<g>
</g>
<g>
</g>
<g>
</g>
<g>
</g>
<g>
</g>
<g>
</g>
<g>
</g>
<g>
</g>
</svg>
